<svg width="280" height="196" viewBox="0 0 280 196" fill="none" xmlns="http://www.w3.org/2000/svg">
<path d="M179.873 2.39932e-10C185.746 -3.90248e-05 190.506 4.76049 190.506 10.6329V56.7091C190.506 62.5814 185.746 67.3418 179.874 67.342L166.487 67.3424C163.662 67.3425 160.9 66.4983 158.558 64.918L86.353 16.2069C79.1061 11.318 82.5666 0.000646649 91.3084 0.000588556L179.873 2.39932e-10Z" fill="white"/>
<path d="M10.9382 195.823C5.0658 195.823 0.305236 191.062 0.305237 185.19L0.305241 139.114C0.305241 133.241 5.06556 128.481 10.9378 128.481L24.3244 128.48C27.15 128.48 29.9112 129.324 32.2536 130.905L104.459 179.616C111.705 184.505 108.245 195.822 99.5032 195.822L10.9382 195.823Z" fill="white"/>
<path d="M184.245 114.261C188.159 116.895 190.506 121.304 190.506 126.022V180.71C190.506 192.062 177.83 198.81 168.413 192.472L6.26114 83.3339C2.34707 80.6995 0 76.2906 0 71.5726V16.8845C0 5.53285 12.676 -1.2152 22.0933 5.12316L184.245 114.261Z" fill="white"/>
<path d="M269.367 0.000794648H226.835C220.963 0.000794648 216.203 4.76131 216.203 10.6337V56.7097C216.203 62.5821 220.963 67.3426 226.835 67.3426H269.367C275.24 67.3426 280 62.5821 280 56.7097V10.6337C280 4.76131 275.24 0.000794648 269.367 0.000794648Z" fill="white"/>
<path d="M269.367 116.076H226.835C220.963 116.076 216.203 120.836 216.203 126.709V185.19C216.203 191.062 220.963 195.823 226.835 195.823H269.367C275.24 195.823 280 191.062 280 185.19V126.709C280 120.836 275.24 116.076 269.367 116.076Z" fill="white"/>
</svg>
