<?xml version="1.0" standalone="no"?><!DOCTYPE svg PUBLIC "-//W3C//DTD SVG 1.1//EN" "http://www.w3.org/Graphics/SVG/1.1/DTD/svg11.dtd"><svg t="1729837261263" class="icon" viewBox="0 0 1024 1024" version="1.1" xmlns="http://www.w3.org/2000/svg" p-id="9662" xmlns:xlink="http://www.w3.org/1999/xlink" width="256" height="256"><path d="M585.898667 213.333333l295.616 512c32.853333 56.896-8.213333 128-73.92 128H216.405333c-65.706667 0-106.752-71.104-73.92-128l295.616-512a86.613333 86.613333 0 0 1 14.421334-18.666666c38.186667-37.333333 104.64-31.104 133.376 18.666666z m-36.949334 21.333334c-16.426667-28.437333-57.472-28.437333-73.898666 0L179.456 746.666667c-16.426667 28.437333 4.096 64 36.949333 64h591.189334c32.853333 0 53.376-35.562667 36.970666-64L548.949333 234.666667z" fill="#ea580c" p-id="9663"></path><path d="M512 320a21.333333 21.333333 0 0 1 21.333333 21.333333v277.333334a21.333333 21.333333 0 1 1-42.666666 0V341.333333a21.333333 21.333333 0 0 1 21.333333-21.333333z" fill="#ea580c" p-id="9664"></path><path d="M554.666667 704a42.666667 42.666667 0 1 1-85.333334 0 42.666667 42.666667 0 0 1 85.333334 0z" fill="#ea580c" p-id="9665"></path></svg>