<svg width="35" height="24" viewBox="0 0 35 24" fill="none" xmlns="http://www.w3.org/2000/svg">
<g id="logo">
<path id="Union" fill-rule="evenodd" clip-rule="evenodd" d="M20.6421 0C22.0816 -9.60684e-06 23.2485 1.16689 23.2485 2.60634V5.79788C23.2485 7.15403 22.1491 8.25342 20.793 8.25346C20.1382 8.25348 19.4985 8.05718 18.9564 7.68992L13.4661 3.9701C11.694 2.76945 12.5438 5.40486e-05 14.6843 3.97625e-05L20.6421 0ZM2.64357 24C1.20412 24 0.0372124 22.8331 0.0372125 21.3937L0.0372128 18.2021C0.0372129 16.846 1.13656 15.7466 2.49271 15.7465C3.14748 15.7465 3.78721 15.9428 4.32927 16.3101L9.8196 20.0299C11.5917 21.2305 10.7419 23.9999 8.60136 24L2.64357 24ZM23.2485 16.3651C23.2485 15.211 22.6756 14.1323 21.7195 13.486L5.42123 2.46915C3.11337 0.909154 0 2.56258 0 5.34822V7.85062C0 9.00466 0.572899 10.0834 1.529 10.7297L17.8273 21.7465C20.1352 23.3065 23.2485 21.6531 23.2485 18.8675V16.3651ZM31.5636 7.41579e-05H28.9908C27.5513 7.41579e-05 26.3844 1.16697 26.3844 2.60641V5.64714C26.3844 7.08658 27.5513 8.25348 28.9908 8.25348H31.5636C33.0031 8.25348 34.17 7.08658 34.17 5.64714V2.60641C34.17 1.16697 33.0031 7.41579e-05 31.5636 7.41579e-05ZM28.9908 14.2265H31.5636C33.0031 14.2265 34.17 15.3934 34.17 16.8329V21.394C34.17 22.8334 33.0031 24.0003 31.5636 24.0003H28.9908C27.5513 24.0003 26.3844 22.8334 26.3844 21.394V16.8329C26.3844 15.3934 27.5513 14.2265 28.9908 14.2265Z" fill="#0F172A"/>
</g>
</svg>
